<?xml version="1.0" standalone="no"?>
<!DOCTYPE svg PUBLIC "-//W3C//DTD SVG 20010904//EN"
 "http://www.w3.org/TR/2001/REC-SVG-20010904/DTD/svg10.dtd">
<svg version="1.0" xmlns="http://www.w3.org/2000/svg"
 width="1600.000000pt" height="1600.000000pt" viewBox="0 0 1600.000000 1600.000000"
 preserveAspectRatio="xMidYMid meet">
<metadata>
Created by potrace 1.14, written by Peter Selinger 2001-2017
</metadata>
<g transform="translate(0.000000,1600.000000) scale(0.100000,-0.100000)"
fill="#000000" stroke="none">
<path d="M1120 15985 c-545 -87 -966 -488 -1087 -1037 -17 -80 -18 -347 -18
-6948 0 -6601 1 -6868 18 -6948 122 -554 545 -954 1097 -1037 143 -22 13617
-22 13760 0 282 42 538 172 736 371 181 182 304 409 353 651 l21 101 0 6862 0
6862 -21 101 c-49 242 -174 473 -354 652 -198 199 -454 328 -735 370 -138 21
-13638 21 -13770 0z m3735 -4505 c908 -57 1642 -365 2201 -924 431 -431 719
-984 843 -1617 55 -283 66 -409 66 -784 0 -382 -11 -506 -70 -800 -61 -303
-139 -534 -275 -810 -152 -309 -328 -555 -570 -795 -382 -380 -873 -656 -1424
-800 l-89 -24 89 -23 c569 -150 1337 -431 2579 -943 242 -99 517 -208 611
-240 381 -130 730 -209 1164 -261 253 -31 872 -34 1100 -6 700 87 1252 305
1707 674 101 82 105 84 124 67 25 -22 24 -36 -6 -123 -111 -328 -450 -696
-877 -954 -263 -158 -567 -281 -903 -366 -305 -76 -530 -103 -870 -103 -621 0
-1133 109 -1795 383 -217 89 -803 384 -1194 599 -735 405 -1154 625 -1446 761
-655 303 -1024 412 -1485 439 -387 23 -691 78 -1010 185 -1117 372 -1879 1275
-2074 2455 -69 417 -69 953 0 1370 182 1104 858 1964 1870 2380 504 207 1114
299 1734 260z m5455 -34 l0 -43 -112 -6 c-169 -9 -265 -43 -376 -136 -70 -58
-150 -172 -183 -262 l-24 -64 -3 -1262 -2 -1263 1745 0 1745 0 0 1233 c0 1362
2 1308 -65 1435 -48 92 -111 161 -201 221 -100 67 -179 91 -326 98 l-118 6 0
43 0 44 1130 0 1130 0 0 -44 0 -43 -112 -6 c-143 -7 -224 -32 -323 -98 -123
-83 -209 -203 -245 -345 -20 -76 -20 -119 -20 -2664 0 -1792 3 -2605 11 -2646
24 -137 133 -298 256 -380 97 -64 170 -86 311 -92 l122 -5 0 -43 0 -44 -1130
0 -1130 0 0 45 0 45 98 0 c189 0 310 49 438 175 56 56 90 100 112 145 64 129
62 85 62 1408 l0 1202 -1745 0 -1745 0 0 -1207 c0 -1338 -3 -1273 66 -1404 69
-130 189 -238 324 -287 51 -19 92 -26 188 -30 l122 -5 0 -43 0 -44 -1130 0
-1130 0 0 45 0 45 98 0 c53 0 126 7 161 15 197 47 363 210 428 420 17 58 18
165 18 2680 l0 2620 -22 70 c-58 183 -205 335 -382 395 -44 14 -101 23 -182
27 l-119 6 0 44 0 43 1130 0 1130 0 0 -44z"/>
<path d="M4366 11169 c-1017 -78 -1792 -792 -2079 -1914 -130 -505 -163 -1134
-91 -1715 135 -1092 701 -1924 1534 -2254 416 -164 945 -198 1424 -91 540 121
1019 463 1339 955 269 414 423 877 494 1485 25 214 25 826 0 1040 -92 792
-346 1394 -776 1839 -473 489 -1100 712 -1845 655z"/>
</g>
</svg>
